<svg id="SvgjsSvg1014" xmlns="http://www.w3.org/2000/svg" version="1.1" xmlns:xlink="http://www.w3.org/1999/xlink" xmlns:svgjs="http://svgjs.com/svgjs" width="16" height="14"><defs id="SvgjsDefs1015"></defs><path id="SvgjsPath1016" d="M676.76 673.11C676.52 673.35 676.23 673.47 675.9 673.47C675.5699999999999 673.47 675.28 673.35 675.04 673.11C674.79 672.86 674.67 672.58 674.67 672.24C674.67 671.91 674.79 671.63 675.04 671.38C675.28 671.14 675.5699999999999 671.02 675.9 671.02C676.23 671.02 676.52 671.14 676.76 671.38C677 671.63 677.12 671.91 677.12 672.24C677.12 672.58 677 672.86 676.76 673.11ZM685.33 673.11C685.09 673.35 684.8000000000001 673.47 684.47 673.47C684.14 673.47 683.85 673.35 683.61 673.11C683.37 672.86 683.24 672.58 683.24 672.24C683.24 671.91 683.37 671.63 683.61 671.38C683.85 671.14 684.14 671.02 684.47 671.02C684.8000000000001 671.02 685.09 671.14 685.33 671.38C685.57 671.63 685.69 671.91 685.69 672.24C685.69 672.58 685.57 672.86 685.33 673.11ZM686.92 661.84C686.92 661.6700000000001 686.86 661.5300000000001 686.74 661.4100000000001C686.62 661.2900000000001 686.47 661.22 686.3100000000001 661.22L674.82 661.22C674.8100000000001 661.1800000000001 674.8000000000001 661.1 674.7700000000001 660.98C674.7500000000001 660.85 674.7300000000001 660.76 674.7200000000001 660.69C674.7100000000002 660.6300000000001 674.6800000000002 660.5400000000001 674.6400000000001 660.44C674.6100000000001 660.35 674.57 660.2700000000001 674.5200000000001 660.21C674.4800000000001 660.1500000000001 674.4100000000001 660.1 674.33 660.0600000000001C674.25 660.0200000000001 674.1600000000001 660.0000000000001 674.0600000000001 660.0000000000001L671.61 660.0000000000001C671.45 660.0000000000001 671.3000000000001 660.0600000000001 671.1800000000001 660.1800000000001C671.0600000000001 660.3000000000001 671.0000000000001 660.45 671.0000000000001 660.61C671.0000000000001 660.78 671.0600000000001 660.92 671.1800000000001 661.04C671.3000000000001 661.16 671.45 661.2199999999999 671.61 661.2199999999999L673.5600000000001 661.2199999999999L675.2600000000001 669.0999999999999C675.2400000000001 669.1299999999999 675.19 669.2199999999999 675.1100000000001 669.3799999999999C675.0200000000001 669.5399999999998 674.9500000000002 669.6599999999999 674.9000000000001 669.7599999999999C674.8500000000001 669.8599999999999 674.8000000000001 669.9799999999999 674.7500000000001 670.1099999999999C674.7000000000002 670.2399999999999 674.6700000000001 670.3399999999999 674.6700000000001 670.4099999999999C674.6700000000001 670.5699999999998 674.73 670.7199999999998 674.8600000000001 670.8399999999998C674.9800000000001 670.9599999999998 675.1200000000001 671.0199999999998 675.2900000000001 671.0199999999998L685.08 671.0199999999998C685.25 671.0199999999998 685.39 670.9599999999998 685.51 670.8399999999998C685.63 670.7199999999998 685.6899999999999 670.5699999999998 685.6899999999999 670.4099999999999C685.6899999999999 670.2399999999999 685.63 670.0999999999999 685.51 669.9799999999999C685.39 669.8599999999999 685.25 669.8 685.08 669.8L676.2800000000001 669.8C676.4300000000001 669.49 676.5100000000001 669.29 676.5100000000001 669.18C676.5100000000001 669.12 676.4700000000001 668.9 676.3900000000001 668.51L686.3700000000001 667.35C686.5300000000001 667.33 686.6600000000001 667.26 686.7600000000001 667.14C686.8700000000001 667.02 686.9200000000001 666.89 686.9200000000001 666.73Z " fill="#ffffff" fill-opacity="1" transform="matrix(1,0,0,1,-671,-660)"></path></svg>