<svg id="SvgjsSvg1011" xmlns="http://www.w3.org/2000/svg" version="1.1" xmlns:xlink="http://www.w3.org/1999/xlink" xmlns:svgjs="http://svgjs.com/svgjs" width="12" height="12"><defs id="SvgjsDefs1012"></defs><path id="SvgjsPath1013" d="M350.88 37.72L345.27 32.12C345.2 32.05 345.09 31.999999999999996 345 31.999999999999996C344.9 31.999999999999996 344.79 32.05 344.72 32.12L344.12 32.72C344.05 32.79 344 32.9 344 33C344 33.09 344.05 33.2 344.12 33.27L348.85 38L344.12 42.730000000000004C344.05 42.800000000000004 344 42.910000000000004 344 43.00000000000001C344 43.10000000000001 344.05 43.21000000000001 344.12 43.28000000000001L344.72 43.88000000000001C344.79 43.95000000000001 344.90000000000003 44.00000000000001 345 44.00000000000001C345.09 44.00000000000001 345.2 43.95000000000001 345.27 43.88000000000001L350.88 38.28000000000001C350.95 38.20000000000001 351 38.10000000000001 351 38.00000000000001C351 37.900000000000006 350.95 37.800000000000004 350.88 37.720000000000006ZM355.62 38C355.62 38.1 355.57 38.2 355.49 38.28L349.89 43.88C349.82 43.95 349.71 44 349.62 44C349.52 44 349.41 43.95 349.34000000000003 43.88L348.74 43.28C348.67 43.21 348.62 43.1 348.62 43C348.62 42.91 348.67 42.8 348.74 42.73L353.46000000000004 38L348.74 33.269999999999996C348.67 33.199999999999996 348.62 33.089999999999996 348.62 32.99999999999999C348.62 32.89999999999999 348.67 32.78999999999999 348.74 32.71999999999999L349.34000000000003 32.11999999999999C349.41 32.04999999999999 349.52000000000004 31.99999999999999 349.62 31.99999999999999C349.71 31.99999999999999 349.82 32.04999999999999 349.89 32.11999999999999L355.49 37.71999999999999C355.57 37.79999999999999 355.62 37.89999999999999 355.62 37.99999999999999Z " fill="#ffffff" fill-opacity="1" transform="matrix(1,0,0,1,-344,-32)"></path></svg>