<svg id="SvgjsSvg1008" xmlns="http://www.w3.org/2000/svg" version="1.1" xmlns:xlink="http://www.w3.org/1999/xlink" xmlns:svgjs="http://svgjs.com/svgjs" width="16" height="16"><defs id="SvgjsDefs1009"></defs><path id="SvgjsPath1010" d="M267.43 92.58C266.62 91.77 265.64 91.36 264.5 91.36C263.36 91.36 262.39 91.77 261.58 92.58C260.77 93.39 260.35999999999996 94.36 260.35999999999996 95.5C260.35999999999996 96.64 260.77 97.62 261.58 98.43C262.39 99.24000000000001 263.35999999999996 99.64 264.5 99.64C265.64 99.64 266.62 99.24 267.43 98.43C268.24 97.62 268.64 96.64 268.64 95.5C268.64 94.36 268.24 93.39 267.43 92.58ZM273.02 104.02C272.78 104.25 272.51 104.36999999999999 272.19 104.36999999999999C271.85 104.36999999999999 271.58 104.24999999999999 271.36 104.02L268.19 100.86C267.09 101.62 265.86 102 264.5 102C263.62 102 262.78 101.83 261.98 101.49C261.17 101.14999999999999 260.48 100.69 259.90000000000003 100.11C259.32000000000005 99.52 258.85 98.83 258.51000000000005 98.03C258.1700000000001 97.23 258.00000000000006 96.38 258.00000000000006 95.5C258.00000000000006 94.62 258.1700000000001 93.78 258.51000000000005 92.98C258.85 92.17 259.32000000000005 91.48 259.90000000000003 90.9C260.48 90.32000000000001 261.17 89.85000000000001 261.98 89.51C262.78000000000003 89.17 263.62 89 264.5 89C265.38 89 266.23 89.17 267.03 89.51C267.83 89.85000000000001 268.52 90.32000000000001 269.10999999999996 90.9C269.68999999999994 91.48 270.15 92.17 270.48999999999995 92.98C270.8299999999999 93.78 270.99999999999994 94.62 270.99999999999994 95.5C270.99999999999994 96.86 270.61999999999995 98.09 269.85999999999996 99.19L273.03 102.36C273.26 102.58 273.36999999999995 102.86 273.36999999999995 103.19C273.36999999999995 103.50999999999999 273.24999999999994 103.78 273.0199999999999 104.02Z " fill="#ffffff" fill-opacity="1" transform="matrix(1,0,0,1,-258,-89)"></path></svg>