<svg xmlns="http://www.w3.org/2000/svg" width="16" height="14"><path d="M5.76 13.11c-.24.24-.53.36-.86.36-.33 0-.62-.12-.86-.36-.25-.25-.37-.53-.37-.87 0-.33.12-.61.37-.86.24-.24.53-.36.86-.36.33 0 .62.12.86.36.24.25.36.53.36.86 0 .34-.12.62-.36.87zm8.57 0c-.24.24-.53.36-.86.36-.33 0-.62-.12-.86-.36-.24-.25-.37-.53-.37-.87 0-.33.13-.61.37-.86.24-.24.53-.36.86-.36.33 0 .62.12.86.36.24.25.36.53.36.86 0 .34-.12.62-.36.87zm1.59-11.27c0-.17-.06-.31-.18-.43a.608.608 0 0 0-.43-.19H3.82c-.01-.04-.02-.12-.05-.24-.02-.13-.04-.22-.05-.29a1.38 1.38 0 0 0-.08-.25.714.714 0 0 0-.12-.23.595.595 0 0 0-.46-.21H.61C.45 0 .3.06.18.18S0 .45 0 .61c0 .17.06.31.18.43s.27.18.43.18h1.95l1.7 7.88c-.02.03-.07.12-.15.28-.09.16-.16.28-.21.38-.05.1-.1.22-.15.35-.05.13-.08.23-.08.3 0 .16.06.31.19.43.12.12.26.18.43.18h9.79c.17 0 .31-.06.43-.18s.18-.27.18-.43c0-.17-.06-.31-.18-.43a.582.582 0 0 0-.43-.18h-8.8c.15-.31.23-.51.23-.62 0-.06-.04-.28-.12-.67l9.98-1.16c.16-.02.29-.09.39-.21.11-.12.16-.25.16-.41z" fill="#fff"/></svg>