<svg xmlns="http://www.w3.org/2000/svg" width="12" height="12"><path d="M6.88 5.72L1.27.12A.417.417 0 0 0 1 0C.9 0 .79.05.72.12l-.6.6A.42.42 0 0 0 0 1c0 .09.05.2.12.27L4.85 6 .12 10.73c-.07.07-.12.18-.12.27 0 .1.05.21.12.28l.6.6c.07.07.18.12.28.12.09 0 .2-.05.27-.12l5.61-5.6C6.95 6.2 7 6.1 7 6c0-.1-.05-.2-.12-.28zm4.74.28c0 .1-.05.2-.13.28l-5.6 5.6c-.07.07-.18.12-.27.12a.42.42 0 0 1-.28-.12l-.6-.6a.42.42 0 0 1-.12-.28c0-.09.05-.2.12-.27L9.46 6 4.74 1.27A.417.417 0 0 1 4.62 1c0-.1.05-.21.12-.28l.6-.6A.42.42 0 0 1 5.62 0c.09 0 .2.05.27.12l5.6 5.6c.08.08.13.18.13.28z" fill="#fff"/></svg>