<svg xmlns="http://www.w3.org/2000/svg" width="16" height="16"><path d="M9.43 3.58c-.81-.81-1.79-1.22-2.93-1.22-1.14 0-2.11.41-2.92 1.22S2.36 5.36 2.36 6.5s.41 2.12 1.22 2.93 1.78 1.21 2.92 1.21 2.12-.4 2.93-1.21c.81-.81 1.21-1.79 1.21-2.93 0-1.14-.4-2.11-1.21-2.92zm5.59 11.44c-.24.23-.51.35-.83.35-.34 0-.61-.12-.83-.35l-3.17-3.16C9.09 12.62 7.86 13 6.5 13c-.88 0-1.72-.17-2.52-.51-.81-.34-1.5-.8-2.08-1.38A6.655 6.655 0 0 1 .51 9.03C.17 8.23 0 7.38 0 6.5c0-.88.17-1.72.51-2.52.34-.81.81-1.5 1.39-2.08C2.48 1.32 3.17.85 3.98.51 4.78.17 5.62 0 6.5 0c.88 0 1.73.17 2.53.51.8.34 1.49.81 2.08 1.39.58.58 1.04 1.27 1.38 2.08.34.8.51 1.64.51 2.52 0 1.36-.38 2.59-1.14 3.69l3.17 3.17c.23.22.34.5.34.83 0 .32-.12.59-.35.83z" fill="#fff"/></svg>