<?xml version="1.0" encoding="utf-8"?><svg width="16" height="42" viewBox="0 0 16 42" xmlns="http://www.w3.org/2000/svg" xmlns:xlink="http://www.w3.org/1999/xlink"><svg width="16" height="14" viewBox="0 0 16 14" id="btn--cart"><path d="M5.76 13.11c-.24.24-.53.36-.86.36-.33 0-.62-.12-.86-.36-.25-.25-.37-.53-.37-.87 0-.33.12-.61.37-.86.24-.24.53-.36.86-.36.33 0 .62.12.86.36.24.25.36.53.36.86 0 .34-.12.62-.36.87zm8.57 0c-.24.24-.53.36-.86.36-.33 0-.62-.12-.86-.36-.24-.25-.37-.53-.37-.87 0-.33.13-.61.37-.86.24-.24.53-.36.86-.36.33 0 .62.12.86.36.24.25.36.53.36.86 0 .34-.12.62-.36.87zm1.59-11.27c0-.17-.06-.31-.18-.43a.608.608 0 0 0-.43-.19H3.82c-.01-.04-.02-.12-.05-.24-.02-.13-.04-.22-.05-.29a1.38 1.38 0 0 0-.08-.25.714.714 0 0 0-.12-.23.595.595 0 0 0-.46-.21H.61C.45 0 .3.06.18.18S0 .45 0 .61c0 .17.06.31.18.43s.27.18.43.18h1.95l1.7 7.88c-.02.03-.07.12-.15.28-.09.16-.16.28-.21.38-.05.1-.1.22-.15.35-.05.13-.08.23-.08.3 0 .16.06.31.19.43.12.12.26.18.43.18h9.79c.17 0 .31-.06.43-.18s.18-.27.18-.43c0-.17-.06-.31-.18-.43a.582.582 0 0 0-.43-.18h-8.8c.15-.31.23-.51.23-.62 0-.06-.04-.28-.12-.67l9.98-1.16c.16-.02.29-.09.39-.21.11-.12.16-.25.16-.41z" fill="#fff"/></svg><svg width="12" height="12" viewBox="0 0 12 12" id="btn--icon-chevron" y="14"><path d="M6.88 5.72L1.27.12A.417.417 0 0 0 1 0C.9 0 .79.05.72.12l-.6.6A.42.42 0 0 0 0 1c0 .09.05.2.12.27L4.85 6 .12 10.73c-.07.07-.12.18-.12.27 0 .1.05.21.12.28l.6.6c.07.07.18.12.28.12.09 0 .2-.05.27-.12l5.61-5.6C6.95 6.2 7 6.1 7 6c0-.1-.05-.2-.12-.28zm4.74.28c0 .1-.05.2-.13.28l-5.6 5.6c-.07.07-.18.12-.27.12a.42.42 0 0 1-.28-.12l-.6-.6a.42.42 0 0 1-.12-.28c0-.09.05-.2.12-.27L9.46 6 4.74 1.27A.417.417 0 0 1 4.62 1c0-.1.05-.21.12-.28l.6-.6A.42.42 0 0 1 5.62 0c.09 0 .2.05.27.12l5.6 5.6c.08.08.13.18.13.28z" fill="#fff"/></svg><svg width="16" height="16" viewBox="0 0 16 16" id="search--search-icon" y="26"><path d="M9.43 3.58c-.81-.81-1.79-1.22-2.93-1.22-1.14 0-2.11.41-2.92 1.22S2.36 5.36 2.36 6.5s.41 2.12 1.22 2.93 1.78 1.21 2.92 1.21 2.12-.4 2.93-1.21c.81-.81 1.21-1.79 1.21-2.93 0-1.14-.4-2.11-1.21-2.92zm5.59 11.44c-.24.23-.51.35-.83.35-.34 0-.61-.12-.83-.35l-3.17-3.16C9.09 12.62 7.86 13 6.5 13c-.88 0-1.72-.17-2.52-.51-.81-.34-1.5-.8-2.08-1.38A6.655 6.655 0 0 1 .51 9.03C.17 8.23 0 7.38 0 6.5c0-.88.17-1.72.51-2.52.34-.81.81-1.5 1.39-2.08C2.48 1.32 3.17.85 3.98.51 4.78.17 5.62 0 6.5 0c.88 0 1.73.17 2.53.51.8.34 1.49.81 2.08 1.39.58.58 1.04 1.27 1.38 2.08.34.8.51 1.64.51 2.52 0 1.36-.38 2.59-1.14 3.69l3.17 3.17c.23.22.34.5.34.83 0 .32-.12.59-.35.83z" fill="#fff"/></svg></svg>